HIERARCHY
ROOT Hips
{
  OFFSET 5.80788e-005 67.184 3.4734
  CHANNELS 6 Xposition Yposition Zposition Zrotation Xrotation Yrotation
  JOINT Chest
  {
    OFFSET 0 8.7983 -4.7612
    CHANNELS 3 Zrotation Xrotation Yrotation
    JOINT Chest2
    {
      OFFSET 0 8.0291 0.4195
      CHANNELS 3 Zrotation Xrotation Yrotation
      JOINT Chest3
      {
        OFFSET 0 9.9351 -2.2114
        CHANNELS 3 Zrotation Xrotation Yrotation
        JOINT Neck
        {
          OFFSET 0 22.3885 -0.4656
          CHANNELS 3 Zrotation Xrotation Yrotation
          JOINT Head
          {
            OFFSET -0.0001 12.643 3.4389
            CHANNELS 3 Zrotation Xrotation Yrotation
            End Site
            {
              OFFSET 0.0001 17.6655 0.5274
            }
          }
        }
        JOINT LeftCollar
        {
          OFFSET 2.2603 21.606 7.4023
          CHANNELS 3 Zrotation Xrotation Yrotation
          JOINT LeftShoulder
          {
            OFFSET 13.5163 -1.1332 -5.0146
            CHANNELS 3 Zrotation Xrotation Yrotation
            JOINT LeftElbow
            {
              OFFSET -0.0995 -28.05 -0.2431
              CHANNELS 3 Zrotation Xrotation Yrotation
              JOINT LeftWrist
              {
                OFFSET 0.0679 -23.3996 -0.1402
                CHANNELS 3 Zrotation Xrotation Yrotation
                JOINT LeftFinger1
                {
                  OFFSET 0.7932 -9.069 2.5189
                  CHANNELS 3 Zrotation Xrotation Yrotation
                  JOINT LeftFinger11
                  {
                    OFFSET -0.8272 -3.3923 0.5977
                    CHANNELS 3 Zrotation Xrotation Yrotation
                    JOINT LeftFinger12
                    {
                      OFFSET -0.5649 -2.3158 0.4082
                      CHANNELS 3 Zrotation Xrotation Yrotation
                      End Site
                      {
                        OFFSET -0.4919 -1.6479 0.2673
                      }
                    }
                  }
                }
                JOINT LeftFinger2
                {
                  OFFSET 0.9159 -9.2044 0.2193
                  CHANNELS 3 Zrotation Xrotation Yrotation
                  JOINT LeftFinger21
                  {
                    OFFSET 0.0117 -4.1944 -0.0248
                    CHANNELS 3 Zrotation Xrotation Yrotation
                    JOINT LeftFinger22
                    {
                      OFFSET 0.0071 -2.3249 -0.0142
                      CHANNELS 3 Zrotation Xrotation Yrotation
                      End Site
                      {
                        OFFSET -0.1475 -2.0882 0.0028
                      }
                    }
                  }
                }
                JOINT LeftFinger3
                {
                  OFFSET 0.6113 -8.7231 -2.0637
                  CHANNELS 3 Zrotation Xrotation Yrotation
                  JOINT LeftFinger31
                  {
                    OFFSET -0.1927 -3.8059 -0.2383
                    CHANNELS 3 Zrotation Xrotation Yrotation
                    JOINT LeftFinger32
                    {
                      OFFSET -0.1091 -2.1688 -0.1362
                      CHANNELS 3 Zrotation Xrotation Yrotation
                      End Site
                      {
                        OFFSET -0.2358 -1.9176 -0.0906
                      }
                    }
                  }
                }
                JOINT LeftFinger4
                {
                  OFFSET -0.6151 -8.0947 -3.5641
                  CHANNELS 3 Zrotation Xrotation Yrotation
                  JOINT LeftFinger41
                  {
                    OFFSET -0.4882 -2.341 -0.6462
                    CHANNELS 3 Zrotation Xrotation Yrotation
                    JOINT LeftFinger42
                    {
                      OFFSET -0.3575 -1.7167 -0.4742
                      CHANNELS 3 Zrotation Xrotation Yrotation
                      End Site
                      {
                        OFFSET -0.4187 -1.5237 -0.3496
                      }
                    }
                  }
                }
                JOINT LeftFinger0
                {
                  OFFSET -1.42 -1.8761 1.4223
                  CHANNELS 3 Zrotation Xrotation Yrotation
                  JOINT LeftFinger01
                  {
                    OFFSET -1.1471 -3.4929 2.6334
                    CHANNELS 3 Zrotation Xrotation Yrotation
                    JOINT LeftFinger02
                    {
                      OFFSET -0.823 -2.3 1.6571
                      CHANNELS 3 Zrotation Xrotation Yrotation
                      End Site
                      {
                        OFFSET -0.5822 -1.6914 1.1582
                      }
                    }
                  }
                }
              }
            }
          }
        }
        JOINT RightCollar
        {
          OFFSET -2.2603 21.606 7.4023
          CHANNELS 3 Zrotation Xrotation Yrotation
          JOINT RightShoulder
          {
            OFFSET -13.5187 -1.1334 -5.0155
            CHANNELS 3 Zrotation Xrotation Yrotation
            JOINT RightElbow
            {
              OFFSET 0.0994 -28.0499 -0.2431
              CHANNELS 3 Zrotation Xrotation Yrotation
              JOINT RightWrist
              {
                OFFSET -0.0679 -23.3996 -0.1402
                CHANNELS 3 Zrotation Xrotation Yrotation
                JOINT RightFinger1
                {
                  OFFSET -0.7932 -9.0691 2.5189
                  CHANNELS 3 Zrotation Xrotation Yrotation
                  JOINT RightFinger11
                  {
                    OFFSET 0.8272 -3.3923 0.5977
                    CHANNELS 3 Zrotation Xrotation Yrotation
                    JOINT RightFinger12
                    {
                      OFFSET 0.565 -2.3158 0.4082
                      CHANNELS 3 Zrotation Xrotation Yrotation
                      End Site
                      {
                        OFFSET 0.4919 -1.6479 0.2673
                      }
                    }
                  }
                }
                JOINT RightFinger2
                {
                  OFFSET -0.916 -9.2044 0.2193
                  CHANNELS 3 Zrotation Xrotation Yrotation
                  JOINT RightFinger21
                  {
                    OFFSET -0.0117 -4.1944 -0.0248
                    CHANNELS 3 Zrotation Xrotation Yrotation
                    JOINT RightFinger22
                    {
                      OFFSET -0.0071 -2.3249 -0.0142
                      CHANNELS 3 Zrotation Xrotation Yrotation
                      End Site
                      {
                        OFFSET 0.1475 -2.0882 0.0028
                      }
                    }
                  }
                }
                JOINT RightFinger3
                {
                  OFFSET -0.6113 -8.7231 -2.0637
                  CHANNELS 3 Zrotation Xrotation Yrotation
                  JOINT RightFinger31
                  {
                    OFFSET 0.1927 -3.8059 -0.2383
                    CHANNELS 3 Zrotation Xrotation Yrotation
                    JOINT RightFinger32
                    {
                      OFFSET 0.1091 -2.1688 -0.1362
                      CHANNELS 3 Zrotation Xrotation Yrotation
                      End Site
                      {
                        OFFSET 0.2358 -1.9176 -0.0906
                      }
                    }
                  }
                }
                JOINT RightFinger4
                {
                  OFFSET 0.6151 -8.0947 -3.564
                  CHANNELS 3 Zrotation Xrotation Yrotation
                  JOINT RightFinger41
                  {
                    OFFSET 0.4882 -2.341 -0.6462
                    CHANNELS 3 Zrotation Xrotation Yrotation
                    JOINT RightFinger42
                    {
                      OFFSET 0.3574 -1.7166 -0.4742
                      CHANNELS 3 Zrotation Xrotation Yrotation
                      End Site
                      {
                        OFFSET 0.4187 -1.5237 -0.3496
                      }
                    }
                  }
                }
                JOINT RightFinger0
                {
                  OFFSET 1.4199 -1.8761 1.4221
                  CHANNELS 3 Zrotation Xrotation Yrotation
                  JOINT RightFinger01
                  {
                    OFFSET 1.1472 -3.4929 2.6336
                    CHANNELS 3 Zrotation Xrotation Yrotation
                    JOINT RightFinger02
                    {
                      OFFSET 0.8229 -2.3 1.6571
                      CHANNELS 3 Zrotation Xrotation Yrotation
                      End Site
                      {
                        OFFSET 0.5822 -1.6914 1.1582
                      }
                    }
                  }
                }
              }
            }
          }
        }
      }
    }
  }
  JOINT RightHip
  {
    OFFSET -9.412 3.9771 -0.7758
    CHANNELS 3 Zrotation Xrotation Yrotation
    JOINT RightKnee
    {
      OFFSET -0.7531 -40.938 0
      CHANNELS 3 Zrotation Xrotation Yrotation
      JOINT RightAnkle
      {
        OFFSET 0 -40.1986 0
        CHANNELS 3 Zrotation Xrotation Yrotation
        JOINT RightToe
        {
          OFFSET 0 -4.4182 9.239
          CHANNELS 3 Zrotation Xrotation Yrotation
          End Site
          {
            OFFSET 0 0 6.1981
          }
        }
      }
    }
  }
  JOINT LeftHip
  {
    OFFSET 9.4119 3.9773 -0.7758
    CHANNELS 3 Zrotation Xrotation Yrotation
    JOINT LeftKnee
    {
      OFFSET 0.7532 -40.9383 0
      CHANNELS 3 Zrotation Xrotation Yrotation
      JOINT LeftAnkle
      {
        OFFSET 0 -40.1986 0
        CHANNELS 3 Zrotation Xrotation Yrotation
        JOINT LeftToe
        {
          OFFSET 0 -4.4182 9.239
          CHANNELS 3 Zrotation Xrotation Yrotation
          End Site
          {
            OFFSET 0 0 6.1981
          }
        }
      }
    }
  }
}
MOTION
Frames:	4
Frame Time:	0.0333333
0.997259 11.6447 1.41538 3.20958e-007 15.2273 3.90237e-008 -0.334937 12.419 -0.225719 -0.641891 24.8392 -0.389251 -0.64189 24.8391 -0.389251 1.57182e-005 -0.000545522 1.16761e-005 5.2821e-009 3.10045e-009 -2.19825e-007 -10.3566 0.665534 -28.7912 62.7313 -59.836 23.2584 1.97879 -9.90117 16.9399 24.2918 5.08293 -5.06083 4.77083e-015 -8.62221e-007 -3.18055e-015 -2.96903e-006 -2.90343e-006 1.886e-006 -3.18055e-015 -8.62221e-007 -0 4.77083e-015 -8.62221e-007 -3.18055e-015 -0.0128295 0.00232603 9.07984e-005 -8.94203e-007 -1.16225e-006 1.05136e-006 4.77083e-015 -8.62221e-007 -3.18055e-015 -0.0160291 0.00298962 0.000851915 2.78904e-007 -7.74333e-007 1.61914e-006 4.77083e-015 -8.62221e-007 -3.18055e-015 -0.0125522 0.00311348 0.00282433 4.78647e-023 -8.62254e-007 3.18055e-015 4.77083e-015 -8.62221e-007 -3.18055e-015 -2.96903e-006 -2.90343e-006 1.886e-006 -3.18055e-015 -8.62221e-007 -0 9.5017 0.473434 23.5201 -60.5727 -65.7953 -10.9139 -3.23764 -5.93139 -17.1678 -24.8988 4.79051 4.68587 9.88907e-007 -3.31545e-006 -3.33669e-006 -6.78314e-006 -5.78515e-007 5.08852e-006 -7.8909e-007 3.85946e-007 -2.99776e-006 9.88907e-007 -3.31545e-006 -3.33669e-006 0.0129404 0.00232114 -8.27276e-005 -7.88644e-007 -3.75691e-007 -2.9978e-006 9.88907e-007 -3.31545e-006 -3.33669e-006 0.0163864 0.0030521 -0.000872516 -3.9426e-007 -1.06956e-006 -1.49891e-006 9.88907e-007 -3.31545e-006 -3.33669e-006 0.0145553 0.00367675 -0.00324964 -1.54738e-006 -1.17963e-006 6.31802e-008 9.88907e-007 -3.31545e-006 -3.33669e-006 -6.78314e-006 -5.78515e-007 5.08852e-006 -7.8909e-007 3.85946e-007 -2.99776e-006 -51.2502 -50.2926 -41.493 -153.294 38.0632 159.029 11.1641 38.4109 -11.5301 -1.25192e-006 7.40378e-006 -2.68565e-006 51.2325 -50.321 41.6142 153.41 38.0499 -159.082 -11.073 38.1237 11.6185 -1.95113e-007 4.36104e-006 2.48938e-006 
0.997212 11.7786 1.1964 3.08562e-008 16.199 -1.84566e-008 -0.331802 12.1975 -0.229765 -0.634605 24.3962 -0.399382 -0.634604 24.3962 -0.399381 1.51828e-005 -0.000524661 1.13294e-005 -1.04061e-007 -1.64969e-010 2.36741e-008 -10.1867 0.700785 -29.6276 63.303 -58.7847 24.7531 2.0184 -9.64645 17.1714 24.3455 4.57389 -4.78506 2.38542e-015 -8.59202e-007 3.18055e-015 2.76139e-007 8.24117e-008 1.62722e-006 2.76139e-007 -9.41614e-007 1.62722e-006 2.38542e-015 -8.59202e-007 3.18055e-015 -0.0128234 0.0023203 8.57092e-005 3.97569e-016 -8.5924e-007 3.18055e-015 2.38542e-015 -8.59202e-007 3.18055e-015 -0.016033 0.00299397 0.000862503 5.1684e-015 1.59028e-015 1.59028e-015 2.38542e-015 -8.59202e-007 3.18055e-015 -0.0126077 0.00312671 0.0028318 2.75954e-007 -7.76893e-007 1.62726e-006 2.38542e-015 -8.59202e-007 3.18055e-015 2.76139e-007 8.24117e-008 1.62722e-006 2.76139e-007 -9.41614e-007 1.62722e-006 9.33552 0.488934 24.3687 -60.2727 -64.9695 -10.8997 -3.26094 -5.74062 -17.3921 -24.9867 4.26588 4.39901 -4.77083e-015 0 -6.36111e-015 -7.90212e-007 -3.80632e-007 -3.00285e-006 -1.59028e-015 1.59028e-015 -0 -4.77083e-015 0 -6.36111e-015 0.012932 0.00230858 -9.16753e-005 7.95139e-016 -1.59028e-015 -0 -4.77083e-015 0 -6.36111e-015 0.0163252 0.0030271 -0.000872411 1.59028e-015 0 -6.36111e-015 -4.77083e-015 0 -6.36111e-015 0.0145875 0.00367519 -0.00327085 -3.18055e-015 -4.77083e-015 -0 -4.77083e-015 0 -6.36111e-015 -7.90212e-007 -3.80632e-007 -3.00285e-006 -1.59028e-015 1.59028e-015 -0 -51.2637 -51.3208 -41.8244 -153.311 38.0403 159.04 12.0731 38.4628 -11.9731 -1.2049e-006 -1.52342e-006 -1.20873e-006 51.2338 -51.358 41.9432 153.435 38.0287 -159.091 -11.9723 38.1574 12.0633 -1.40642e-006 4.36172e-006 1.28617e-006 
0.997164 11.9148 0.977054 -1.09721e-008 17.1704 1.45724e-008 -0.328655 11.9761 -0.233757 -0.627377 23.9534 -0.40935 -0.627377 23.9534 -0.40935 1.33734e-005 -0.000448356 9.92949e-006 -5.62416e-008 -1.68305e-009 2.31807e-007 -10.0163 0.733553 -30.4639 63.8065 -57.7255 26.1847 2.05725 -9.39158 17.4025 24.4016 4.06515 -4.50903 -1.19271e-015 0 1.59028e-015 -3.97569e-016 0 1.59028e-015 -7.95139e-016 1.59028e-015 1.59028e-015 -1.19271e-015 0 1.59028e-015 -0.0128346 0.00232727 8.4667e-005 1.19271e-015 4.77083e-015 3.18055e-015 -1.19271e-015 0 1.59028e-015 -0.0160286 0.00299383 0.000859244 -1.98785e-015 6.36111e-015 4.77083e-015 -1.19271e-015 0 1.59028e-015 -0.0125933 0.0031243 0.00282745 -4.37326e-015 3.18055e-015 4.77083e-015 -1.19271e-015 0 1.59028e-015 -3.97569e-016 0 1.59028e-015 -7.95139e-016 1.59028e-015 1.59028e-015 9.16917 0.502003 25.2172 -59.9825 -64.1443 -10.896 -3.28413 -5.54985 -17.6164 -25.0771 3.74173 4.11154 -8.74653e-015 1.59028e-015 -1.27222e-014 -1.18734e-006 -6.73526e-007 -4.51157e-006 -3.97569e-015 0 -0 -8.74653e-015 1.59028e-015 -1.27222e-014 0.0129883 0.00232714 -8.26491e-005 6.96407e-006 3.18508e-006 -3.38188e-006 -8.74653e-015 1.59028e-015 -1.27222e-014 0.0162945 0.00302808 -0.000870988 -7.95139e-016 -1.59028e-015 -3.18055e-015 -8.74653e-015 1.59028e-015 -1.27222e-014 0.0145534 0.00367592 -0.00325106 -7.95139e-015 4.77083e-015 -6.36111e-015 -8.74653e-015 1.59028e-015 -1.27222e-014 -1.18734e-006 -6.73526e-007 -4.51157e-006 -3.97569e-015 0 -0 -51.2714 -52.3565 -42.1516 -153.338 38.0177 159.049 12.9836 38.509 -12.4177 8.09014e-007 4.3645e-006 -1.88228e-006 51.2432 -52.3959 42.2787 153.46 38.0072 -159.1 -12.8726 38.1855 12.5092 9.97131e-006 -3.95389e-007 1.81845e-006 
0.997117 12.0534 0.757398 -7.26774e-008 18.1414 1.25907e-007 -0.325524 11.7548 -0.237708 -0.62026 23.5108 -0.419177 -0.62026 23.5108 -0.419177 1.31798e-005 -0.000440159 1.033e-005 -1.03947e-007 -1.68237e-010 2.41664e-008 -9.84552 0.763774 -31.3001 64.2476 -56.6602 27.5593 2.09471 -9.13646 17.6332 24.4602 3.55679 -4.23273 1.59028e-015 0 -0 1.19271e-015 -1.59028e-015 4.77083e-015 1.59028e-015 8.54155e-007 6.36111e-015 1.59028e-015 0 -0 -0.0128199 0.0023259 8.39644e-005 -1.06357e-005 2.44096e-007 2.49092e-006 1.59028e-015 0 -0 -0.0160402 0.0029957 0.000858851 2.38542e-015 8.54194e-007 -0 1.59028e-015 0 -0 -0.0125741 0.00312139 0.00282953 1.05013e-005 -1.11085e-006 -3.31129e-006 1.59028e-015 0 -0 1.19271e-015 -1.59028e-015 4.77083e-015 1.59028e-015 8.54155e-007 6.36111e-015 9.0027 0.51257 26.0655 -59.7009 -63.3199 -10.9016 -3.3045 -5.35857 -17.8404 -25.1701 3.21812 3.82346 4.29471e-006 -4.36315e-007 4.35741e-006 -1.59028e-015 8.66301e-007 3.18055e-015 1.59028e-015 1.59028e-015 -3.18055e-015 4.29471e-006 -4.36315e-007 4.35741e-006 0.0129542 0.00232033 -8.91787e-005 -7.95139e-016 -1.59028e-015 -3.18055e-015 4.29471e-006 -4.36315e-007 4.35741e-006 0.0163571 0.00304604 -0.000882234 0 6.36111e-015 -0 4.29471e-006 -4.36315e-007 4.35741e-006 0.0145917 0.0036859 -0.00327047 -2.38542e-015 3.18055e-015 -3.18055e-015 4.29471e-006 -4.36315e-007 4.35741e-006 -1.59028e-015 8.66301e-007 3.18055e-015 1.59028e-015 1.59028e-015 -3.18055e-015 -51.2946 -53.39 -42.4912 -153.362 37.9944 159.06 13.8955 38.5496 -12.8639 -1.41111e-006 -4.0167e-006 1.27432e-006 51.262 -53.434 42.6219 153.485 37.9855 -159.109 -13.7739 38.208 12.9563 -4.37326e-015 -6.36111e-015 -7.7526e-015 
